<mxfile host="65bd71144e">
    <diagram name="PÃ¡gina-1" id="VI7XL7Q7ZIXTf2wmSfxb">
        <mxGraphModel dx="568" dy="388" grid="1" gridSize="10" guides="1" tooltips="1" connect="1" arrows="1" fold="1" page="1" pageScale="1" pageWidth="827" pageHeight="1169" math="0" shadow="0">
            <root>
                <mxCell id="0"/>
                <mxCell id="1" parent="0"/>
                <mxCell id="R9cN1EyK2M06EUhOzFU1-1" value="" style="rounded=0;whiteSpace=wrap;html=1;" parent="1" vertex="1">
                    <mxGeometry x="213" y="40" width="557" height="1370" as="geometry"/>
                </mxCell>
                <mxCell id="R9cN1EyK2M06EUhOzFU1-2" value="Technician / Admin" style="shape=umlActor;verticalLabelPosition=bottom;verticalAlign=top;html=1;outlineConnect=0;" parent="1" vertex="1">
                    <mxGeometry x="40" y="520" width="60" height="110" as="geometry"/>
                </mxCell>
                <mxCell id="R9cN1EyK2M06EUhOzFU1-3" value="Login" style="ellipse;whiteSpace=wrap;html=1;" parent="1" vertex="1">
                    <mxGeometry x="354" y="120" width="120" height="80" as="geometry"/>
                </mxCell>
                <mxCell id="R9cN1EyK2M06EUhOzFU1-7" value="" style="endArrow=none;html=1;rounded=0;exitX=1;exitY=0.3333333333333333;exitDx=0;exitDy=0;exitPerimeter=0;entryX=0;entryY=0.5;entryDx=0;entryDy=0;" parent="1" source="R9cN1EyK2M06EUhOzFU1-2" target="R9cN1EyK2M06EUhOzFU1-3" edge="1">
                    <mxGeometry width="50" height="50" relative="1" as="geometry">
                        <mxPoint x="390" y="350" as="sourcePoint"/>
                        <mxPoint x="440" y="300" as="targetPoint"/>
                    </mxGeometry>
                </mxCell>
                <mxCell id="R9cN1EyK2M06EUhOzFU1-8" value="Password Verification" style="ellipse;whiteSpace=wrap;html=1;" parent="1" vertex="1">
                    <mxGeometry x="580" y="70" width="120" height="80" as="geometry"/>
                </mxCell>
                <mxCell id="R9cN1EyK2M06EUhOzFU1-10" value="" style="endArrow=open;html=1;rounded=0;exitX=1;exitY=0;exitDx=0;exitDy=0;entryX=0;entryY=0.5;entryDx=0;entryDy=0;dashed=1;dashPattern=12 12;endFill=0;" parent="1" source="R9cN1EyK2M06EUhOzFU1-3" target="R9cN1EyK2M06EUhOzFU1-8" edge="1">
                    <mxGeometry width="50" height="50" relative="1" as="geometry">
                        <mxPoint x="390" y="350" as="sourcePoint"/>
                        <mxPoint x="440" y="300" as="targetPoint"/>
                    </mxGeometry>
                </mxCell>
                <mxCell id="R9cN1EyK2M06EUhOzFU1-11" value="&amp;lt;&amp;lt;Includes&amp;gt;&amp;gt;" style="edgeLabel;html=1;align=center;verticalAlign=middle;resizable=0;points=[];rotation=-5;" parent="R9cN1EyK2M06EUhOzFU1-10" vertex="1" connectable="0">
                    <mxGeometry x="-0.3548" y="1" relative="1" as="geometry">
                        <mxPoint x="24" y="-4" as="offset"/>
                    </mxGeometry>
                </mxCell>
                <mxCell id="R9cN1EyK2M06EUhOzFU1-25" style="edgeStyle=orthogonalEdgeStyle;rounded=0;orthogonalLoop=1;jettySize=auto;html=1;exitX=0;exitY=0;exitDx=0;exitDy=0;entryX=1;entryY=1;entryDx=0;entryDy=0;dashed=1;dashPattern=12 12;endArrow=open;endFill=0;" parent="1" source="R9cN1EyK2M06EUhOzFU1-19" target="R9cN1EyK2M06EUhOzFU1-3" edge="1">
                    <mxGeometry relative="1" as="geometry">
                        <Array as="points">
                            <mxPoint x="598" y="188"/>
                        </Array>
                    </mxGeometry>
                </mxCell>
                <mxCell id="R9cN1EyK2M06EUhOzFU1-26" value="&amp;lt;&amp;lt;Extends&amp;gt;&amp;gt;" style="edgeLabel;html=1;align=center;verticalAlign=middle;resizable=0;points=[];" parent="R9cN1EyK2M06EUhOzFU1-25" vertex="1" connectable="0">
                    <mxGeometry x="0.2562" y="-2" relative="1" as="geometry">
                        <mxPoint x="18" as="offset"/>
                    </mxGeometry>
                </mxCell>
                <mxCell id="R9cN1EyK2M06EUhOzFU1-19" value="Login Error&amp;nbsp;" style="ellipse;whiteSpace=wrap;html=1;" parent="1" vertex="1">
                    <mxGeometry x="580" y="180" width="120" height="80" as="geometry"/>
                </mxCell>
                <mxCell id="R9cN1EyK2M06EUhOzFU1-27" value="Check Stock" style="ellipse;whiteSpace=wrap;html=1;" parent="1" vertex="1">
                    <mxGeometry x="354" y="260" width="120" height="80" as="geometry"/>
                </mxCell>
                <mxCell id="R9cN1EyK2M06EUhOzFU1-29" value="" style="endArrow=none;html=1;rounded=0;exitX=1;exitY=0.3333333333333333;exitDx=0;exitDy=0;exitPerimeter=0;entryX=0;entryY=0.5;entryDx=0;entryDy=0;endFill=0;" parent="1" source="R9cN1EyK2M06EUhOzFU1-2" target="R9cN1EyK2M06EUhOzFU1-27" edge="1">
                    <mxGeometry width="50" height="50" relative="1" as="geometry">
                        <mxPoint x="390" y="350" as="sourcePoint"/>
                        <mxPoint x="380" y="270" as="targetPoint"/>
                    </mxGeometry>
                </mxCell>
                <mxCell id="R9cN1EyK2M06EUhOzFU1-34" value="Manage Material" style="ellipse;whiteSpace=wrap;html=1;" parent="1" vertex="1">
                    <mxGeometry x="354" y="440" width="120" height="80" as="geometry"/>
                </mxCell>
                <mxCell id="R9cN1EyK2M06EUhOzFU1-35" value="" style="endArrow=none;html=1;rounded=0;exitX=1;exitY=0.3333333333333333;exitDx=0;exitDy=0;exitPerimeter=0;entryX=0;entryY=0.5;entryDx=0;entryDy=0;" parent="1" source="R9cN1EyK2M06EUhOzFU1-2" target="R9cN1EyK2M06EUhOzFU1-34" edge="1">
                    <mxGeometry width="50" height="50" relative="1" as="geometry">
                        <mxPoint x="390" y="350" as="sourcePoint"/>
                        <mxPoint x="440" y="300" as="targetPoint"/>
                    </mxGeometry>
                </mxCell>
                <mxCell id="R9cN1EyK2M06EUhOzFU1-36" value="" style="endArrow=open;html=1;rounded=0;exitX=0.5;exitY=0;exitDx=0;exitDy=0;entryX=0.5;entryY=1;entryDx=0;entryDy=0;dashed=1;dashPattern=12 12;endFill=0;" parent="1" source="R9cN1EyK2M06EUhOzFU1-34" target="R9cN1EyK2M06EUhOzFU1-27" edge="1">
                    <mxGeometry width="50" height="50" relative="1" as="geometry">
                        <mxPoint x="390" y="350" as="sourcePoint"/>
                        <mxPoint x="440" y="300" as="targetPoint"/>
                    </mxGeometry>
                </mxCell>
                <mxCell id="R9cN1EyK2M06EUhOzFU1-37" value="&amp;lt;&amp;lt;Includes&amp;gt;&amp;gt;" style="edgeLabel;html=1;align=center;verticalAlign=middle;resizable=0;points=[];" parent="R9cN1EyK2M06EUhOzFU1-36" vertex="1" connectable="0">
                    <mxGeometry x="-0.224" y="-3" relative="1" as="geometry">
                        <mxPoint x="-4" y="-13" as="offset"/>
                    </mxGeometry>
                </mxCell>
                <mxCell id="R9cN1EyK2M06EUhOzFU1-38" value="Manage External Trainings" style="ellipse;whiteSpace=wrap;html=1;" parent="1" vertex="1">
                    <mxGeometry x="354" y="585" width="120" height="80" as="geometry"/>
                </mxCell>
                <mxCell id="R9cN1EyK2M06EUhOzFU1-40" value="" style="endArrow=none;html=1;rounded=0;entryX=0;entryY=0.5;entryDx=0;entryDy=0;exitX=1;exitY=0.3333333333333333;exitDx=0;exitDy=0;exitPerimeter=0;" parent="1" source="R9cN1EyK2M06EUhOzFU1-2" target="R9cN1EyK2M06EUhOzFU1-38" edge="1">
                    <mxGeometry width="50" height="50" relative="1" as="geometry">
                        <mxPoint x="130" y="500" as="sourcePoint"/>
                        <mxPoint x="440" y="380" as="targetPoint"/>
                    </mxGeometry>
                </mxCell>
                <mxCell id="R9cN1EyK2M06EUhOzFU1-41" value="Add Partner" style="ellipse;whiteSpace=wrap;html=1;" parent="1" vertex="1">
                    <mxGeometry x="580" y="586" width="120" height="80" as="geometry"/>
                </mxCell>
                <mxCell id="R9cN1EyK2M06EUhOzFU1-43" value="Manage Clothing" style="ellipse;whiteSpace=wrap;html=1;" parent="1" vertex="1">
                    <mxGeometry x="354" y="750" width="120" height="80" as="geometry"/>
                </mxCell>
                <mxCell id="R9cN1EyK2M06EUhOzFU1-44" value="Manage Issue" style="ellipse;whiteSpace=wrap;html=1;" parent="1" vertex="1">
                    <mxGeometry x="354" y="920" width="120" height="80" as="geometry"/>
                </mxCell>
                <mxCell id="R9cN1EyK2M06EUhOzFU1-46" value="" style="endArrow=none;html=1;rounded=0;exitX=1;exitY=0.3333333333333333;exitDx=0;exitDy=0;exitPerimeter=0;entryX=0;entryY=0.5;entryDx=0;entryDy=0;" parent="1" source="R9cN1EyK2M06EUhOzFU1-2" target="R9cN1EyK2M06EUhOzFU1-43" edge="1">
                    <mxGeometry width="50" height="50" relative="1" as="geometry">
                        <mxPoint x="280" y="980" as="sourcePoint"/>
                        <mxPoint x="330" y="930" as="targetPoint"/>
                    </mxGeometry>
                </mxCell>
                <mxCell id="R9cN1EyK2M06EUhOzFU1-47" value="" style="endArrow=none;html=1;rounded=0;exitX=1;exitY=0.3333333333333333;exitDx=0;exitDy=0;exitPerimeter=0;entryX=0;entryY=0.5;entryDx=0;entryDy=0;" parent="1" source="R9cN1EyK2M06EUhOzFU1-2" target="R9cN1EyK2M06EUhOzFU1-44" edge="1">
                    <mxGeometry width="50" height="50" relative="1" as="geometry">
                        <mxPoint x="280" y="930" as="sourcePoint"/>
                        <mxPoint x="330" y="880" as="targetPoint"/>
                    </mxGeometry>
                </mxCell>
                <mxCell id="R9cN1EyK2M06EUhOzFU1-48" value="Check Stock" style="ellipse;whiteSpace=wrap;html=1;" parent="1" vertex="1">
                    <mxGeometry x="580" y="1000" width="120" height="80" as="geometry"/>
                </mxCell>
                <mxCell id="R9cN1EyK2M06EUhOzFU1-51" value="" style="endArrow=open;html=1;rounded=0;entryX=0;entryY=0;entryDx=0;entryDy=0;exitX=1;exitY=1;exitDx=0;exitDy=0;dashed=1;dashPattern=12 12;endFill=0;" parent="1" source="R9cN1EyK2M06EUhOzFU1-43" target="R9cN1EyK2M06EUhOzFU1-48" edge="1">
                    <mxGeometry width="50" height="50" relative="1" as="geometry">
                        <mxPoint x="420" y="960" as="sourcePoint"/>
                        <mxPoint x="470" y="910" as="targetPoint"/>
                    </mxGeometry>
                </mxCell>
                <mxCell id="R9cN1EyK2M06EUhOzFU1-52" value="&amp;lt;&amp;lt;Includes&amp;gt;&amp;gt;" style="edgeLabel;html=1;align=center;verticalAlign=middle;resizable=0;points=[];" parent="R9cN1EyK2M06EUhOzFU1-51" vertex="1" connectable="0">
                    <mxGeometry x="-0.1328" y="-1" relative="1" as="geometry">
                        <mxPoint x="15" y="11" as="offset"/>
                    </mxGeometry>
                </mxCell>
                <mxCell id="R9cN1EyK2M06EUhOzFU1-53" value="&amp;lt;&amp;lt;Extendes&amp;gt;&amp;gt;" style="edgeLabel;html=1;align=center;verticalAlign=middle;resizable=0;points=[];" parent="1" vertex="1" connectable="0">
                    <mxGeometry x="527.0025272333867" y="998.0010371529432" as="geometry">
                        <mxPoint x="1" y="2" as="offset"/>
                    </mxGeometry>
                </mxCell>
                <mxCell id="R9cN1EyK2M06EUhOzFU1-58" value="" style="endArrow=open;html=1;rounded=0;entryX=1;entryY=0.5;entryDx=0;entryDy=0;exitX=0;exitY=0.5;exitDx=0;exitDy=0;dashed=1;dashPattern=12 12;endFill=0;" parent="1" source="R9cN1EyK2M06EUhOzFU1-41" target="R9cN1EyK2M06EUhOzFU1-38" edge="1">
                    <mxGeometry width="50" height="50" relative="1" as="geometry">
                        <mxPoint x="600" y="730" as="sourcePoint"/>
                        <mxPoint x="650" y="680" as="targetPoint"/>
                    </mxGeometry>
                </mxCell>
                <mxCell id="R9cN1EyK2M06EUhOzFU1-59" value="&amp;lt;&amp;lt;Extends&amp;gt;&amp;gt;" style="edgeLabel;html=1;align=center;verticalAlign=middle;resizable=0;points=[];" parent="R9cN1EyK2M06EUhOzFU1-58" vertex="1" connectable="0">
                    <mxGeometry x="0.3071" y="-2" relative="1" as="geometry">
                        <mxPoint x="18" y="-6" as="offset"/>
                    </mxGeometry>
                </mxCell>
                <mxCell id="R9cN1EyK2M06EUhOzFU1-60" value="Manage Students" style="ellipse;whiteSpace=wrap;html=1;" parent="1" vertex="1">
                    <mxGeometry x="354" y="1310" width="120" height="80" as="geometry"/>
                </mxCell>
                <mxCell id="R9cN1EyK2M06EUhOzFU1-61" value="" style="endArrow=none;html=1;rounded=0;exitX=1;exitY=0.3333333333333333;exitDx=0;exitDy=0;exitPerimeter=0;entryX=0;entryY=0.5;entryDx=0;entryDy=0;" parent="1" source="R9cN1EyK2M06EUhOzFU1-2" target="R9cN1EyK2M06EUhOzFU1-60" edge="1">
                    <mxGeometry width="50" height="50" relative="1" as="geometry">
                        <mxPoint x="530" y="740" as="sourcePoint"/>
                        <mxPoint x="580" y="690" as="targetPoint"/>
                    </mxGeometry>
                </mxCell>
                <mxCell id="R9cN1EyK2M06EUhOzFU1-62" value="Manage Lockers" style="ellipse;whiteSpace=wrap;html=1;" parent="1" vertex="1">
                    <mxGeometry x="580" y="1310" width="120" height="80" as="geometry"/>
                </mxCell>
                <mxCell id="R9cN1EyK2M06EUhOzFU1-63" value="" style="endArrow=open;html=1;rounded=0;exitX=0;exitY=0.5;exitDx=0;exitDy=0;entryX=1;entryY=0.5;entryDx=0;entryDy=0;dashed=1;dashPattern=12 12;endFill=0;" parent="1" source="R9cN1EyK2M06EUhOzFU1-62" target="R9cN1EyK2M06EUhOzFU1-60" edge="1">
                    <mxGeometry width="50" height="50" relative="1" as="geometry">
                        <mxPoint x="530" y="1201" as="sourcePoint"/>
                        <mxPoint x="580" y="1151" as="targetPoint"/>
                    </mxGeometry>
                </mxCell>
                <mxCell id="R9cN1EyK2M06EUhOzFU1-64" value="&amp;lt;&amp;lt;Extends&amp;gt;&amp;gt;" style="edgeLabel;html=1;align=center;verticalAlign=middle;resizable=0;points=[];" parent="R9cN1EyK2M06EUhOzFU1-63" vertex="1" connectable="0">
                    <mxGeometry x="0.2383" relative="1" as="geometry">
                        <mxPoint x="14" y="-9" as="offset"/>
                    </mxGeometry>
                </mxCell>
                <mxCell id="R9cN1EyK2M06EUhOzFU1-65" value="" style="rounded=0;whiteSpace=wrap;html=1;" parent="1" vertex="1">
                    <mxGeometry x="213" y="1490" width="557" height="510" as="geometry"/>
                </mxCell>
                <mxCell id="5" style="edgeStyle=none;html=1;entryX=0;entryY=0.5;entryDx=0;entryDy=0;exitX=1;exitY=0.3333333333333333;exitDx=0;exitDy=0;exitPerimeter=0;" parent="1" source="R9cN1EyK2M06EUhOzFU1-66" target="4" edge="1">
                    <mxGeometry relative="1" as="geometry"/>
                </mxCell>
                <mxCell id="R9cN1EyK2M06EUhOzFU1-66" value="Admin" style="shape=umlActor;verticalLabelPosition=bottom;verticalAlign=top;html=1;outlineConnect=0;" parent="1" vertex="1">
                    <mxGeometry x="30" y="1640" width="60" height="110" as="geometry"/>
                </mxCell>
                <mxCell id="R9cN1EyK2M06EUhOzFU1-103" value="Manage Users" style="ellipse;whiteSpace=wrap;html=1;" parent="1" vertex="1">
                    <mxGeometry x="300" y="1710" width="120" height="80" as="geometry"/>
                </mxCell>
                <mxCell id="R9cN1EyK2M06EUhOzFU1-104" value="" style="endArrow=none;html=1;rounded=0;exitX=0;exitY=0;exitDx=0;exitDy=0;entryX=1;entryY=0.3333333333333333;entryDx=0;entryDy=0;entryPerimeter=0;" parent="1" source="R9cN1EyK2M06EUhOzFU1-103" target="R9cN1EyK2M06EUhOzFU1-66" edge="1">
                    <mxGeometry width="50" height="50" relative="1" as="geometry">
                        <mxPoint x="510" y="2310" as="sourcePoint"/>
                        <mxPoint x="560" y="2260" as="targetPoint"/>
                    </mxGeometry>
                </mxCell>
                <mxCell id="R9cN1EyK2M06EUhOzFU1-107" value="Manage Roles" style="ellipse;whiteSpace=wrap;html=1;" parent="1" vertex="1">
                    <mxGeometry x="526" y="1710" width="120" height="80" as="geometry"/>
                </mxCell>
                <mxCell id="R9cN1EyK2M06EUhOzFU1-108" value="" style="endArrow=open;html=1;rounded=0;exitX=0;exitY=0.5;exitDx=0;exitDy=0;entryX=1;entryY=0.5;entryDx=0;entryDy=0;dashed=1;dashPattern=12 12;endFill=0;" parent="1" source="R9cN1EyK2M06EUhOzFU1-107" target="R9cN1EyK2M06EUhOzFU1-103" edge="1">
                    <mxGeometry width="50" height="50" relative="1" as="geometry">
                        <mxPoint x="396" y="1910" as="sourcePoint"/>
                        <mxPoint x="446" y="1860" as="targetPoint"/>
                    </mxGeometry>
                </mxCell>
                <mxCell id="R9cN1EyK2M06EUhOzFU1-109" value="&amp;lt;&amp;lt;Extends&amp;gt;&amp;gt;" style="edgeLabel;html=1;align=center;verticalAlign=middle;resizable=0;points=[];" parent="R9cN1EyK2M06EUhOzFU1-108" vertex="1" connectable="0">
                    <mxGeometry x="0.4319" y="-1" relative="1" as="geometry">
                        <mxPoint x="22" y="-7" as="offset"/>
                    </mxGeometry>
                </mxCell>
                <mxCell id="R9cN1EyK2M06EUhOzFU1-120" value="Check Stock" style="ellipse;whiteSpace=wrap;html=1;" parent="1" vertex="1">
                    <mxGeometry x="583" y="440" width="120" height="80" as="geometry"/>
                </mxCell>
                <mxCell id="R9cN1EyK2M06EUhOzFU1-122" value="" style="endArrow=open;html=1;rounded=0;exitX=1;exitY=0;exitDx=0;exitDy=0;entryX=0;entryY=0.5;entryDx=0;entryDy=0;dashed=1;dashPattern=12 12;endFill=0;startArrow=none;startFill=0;" parent="1" source="R9cN1EyK2M06EUhOzFU1-38" target="R9cN1EyK2M06EUhOzFU1-120" edge="1">
                    <mxGeometry width="50" height="50" relative="1" as="geometry">
                        <mxPoint x="560" y="540" as="sourcePoint"/>
                        <mxPoint x="610" y="490" as="targetPoint"/>
                    </mxGeometry>
                </mxCell>
                <mxCell id="R9cN1EyK2M06EUhOzFU1-123" value="&amp;lt;&amp;lt;Includes&amp;gt;&amp;gt;" style="edgeLabel;html=1;align=center;verticalAlign=middle;resizable=0;points=[];" parent="R9cN1EyK2M06EUhOzFU1-122" vertex="1" connectable="0">
                    <mxGeometry x="-0.1487" y="2" relative="1" as="geometry">
                        <mxPoint x="9" y="-6" as="offset"/>
                    </mxGeometry>
                </mxCell>
                <mxCell id="R9cN1EyK2M06EUhOzFU1-125" value="" style="rounded=0;whiteSpace=wrap;html=1;" parent="1" vertex="1">
                    <mxGeometry x="213" y="2120" width="557" height="400" as="geometry"/>
                </mxCell>
                <mxCell id="R9cN1EyK2M06EUhOzFU1-127" value="Login" style="ellipse;whiteSpace=wrap;html=1;" parent="1" vertex="1">
                    <mxGeometry x="357" y="2190" width="120" height="80" as="geometry"/>
                </mxCell>
                <mxCell id="R9cN1EyK2M06EUhOzFU1-128" value="Password Verification" style="ellipse;whiteSpace=wrap;html=1;" parent="1" vertex="1">
                    <mxGeometry x="583" y="2140" width="120" height="80" as="geometry"/>
                </mxCell>
                <mxCell id="R9cN1EyK2M06EUhOzFU1-129" value="" style="endArrow=open;html=1;rounded=0;exitX=1;exitY=0;exitDx=0;exitDy=0;entryX=0;entryY=0.5;entryDx=0;entryDy=0;dashed=1;dashPattern=12 12;endFill=0;" parent="1" source="R9cN1EyK2M06EUhOzFU1-127" target="R9cN1EyK2M06EUhOzFU1-128" edge="1">
                    <mxGeometry width="50" height="50" relative="1" as="geometry">
                        <mxPoint x="393" y="2420" as="sourcePoint"/>
                        <mxPoint x="443" y="2370" as="targetPoint"/>
                    </mxGeometry>
                </mxCell>
                <mxCell id="R9cN1EyK2M06EUhOzFU1-130" value="&amp;lt;&amp;lt;Includes&amp;gt;&amp;gt;" style="edgeLabel;html=1;align=center;verticalAlign=middle;resizable=0;points=[];rotation=-5;" parent="R9cN1EyK2M06EUhOzFU1-129" vertex="1" connectable="0">
                    <mxGeometry x="-0.3548" y="1" relative="1" as="geometry">
                        <mxPoint x="24" y="-4" as="offset"/>
                    </mxGeometry>
                </mxCell>
                <mxCell id="R9cN1EyK2M06EUhOzFU1-131" style="edgeStyle=orthogonalEdgeStyle;rounded=0;orthogonalLoop=1;jettySize=auto;html=1;exitX=0;exitY=0;exitDx=0;exitDy=0;entryX=1;entryY=1;entryDx=0;entryDy=0;dashed=1;dashPattern=12 12;endArrow=open;endFill=0;" parent="1" source="R9cN1EyK2M06EUhOzFU1-133" target="R9cN1EyK2M06EUhOzFU1-127" edge="1">
                    <mxGeometry relative="1" as="geometry">
                        <Array as="points">
                            <mxPoint x="601" y="2258"/>
                        </Array>
                    </mxGeometry>
                </mxCell>
                <mxCell id="R9cN1EyK2M06EUhOzFU1-132" value="&amp;lt;&amp;lt;Extends&amp;gt;&amp;gt;" style="edgeLabel;html=1;align=center;verticalAlign=middle;resizable=0;points=[];" parent="R9cN1EyK2M06EUhOzFU1-131" vertex="1" connectable="0">
                    <mxGeometry x="0.2562" y="-2" relative="1" as="geometry">
                        <mxPoint x="18" as="offset"/>
                    </mxGeometry>
                </mxCell>
                <mxCell id="R9cN1EyK2M06EUhOzFU1-133" value="Login Error&amp;nbsp;" style="ellipse;whiteSpace=wrap;html=1;" parent="1" vertex="1">
                    <mxGeometry x="583" y="2250" width="120" height="80" as="geometry"/>
                </mxCell>
                <mxCell id="R9cN1EyK2M06EUhOzFU1-135" value="User" style="shape=umlActor;verticalLabelPosition=bottom;verticalAlign=top;html=1;outlineConnect=0;" parent="1" vertex="1">
                    <mxGeometry x="40" y="2290" width="60" height="110" as="geometry"/>
                </mxCell>
                <mxCell id="R9cN1EyK2M06EUhOzFU1-138" value="" style="endArrow=none;html=1;rounded=0;exitX=1;exitY=0.3333333333333333;exitDx=0;exitDy=0;exitPerimeter=0;entryX=0;entryY=0.5;entryDx=0;entryDy=0;" parent="1" source="R9cN1EyK2M06EUhOzFU1-135" target="R9cN1EyK2M06EUhOzFU1-127" edge="1">
                    <mxGeometry width="50" height="50" relative="1" as="geometry">
                        <mxPoint x="230" y="2370" as="sourcePoint"/>
                        <mxPoint x="280" y="2320" as="targetPoint"/>
                    </mxGeometry>
                </mxCell>
                <mxCell id="R9cN1EyK2M06EUhOzFU1-139" value="Submit Ticket" style="ellipse;whiteSpace=wrap;html=1;" parent="1" vertex="1">
                    <mxGeometry x="357" y="2410" width="120" height="80" as="geometry"/>
                </mxCell>
                <mxCell id="R9cN1EyK2M06EUhOzFU1-140" value="" style="endArrow=none;html=1;rounded=0;exitX=1;exitY=0.3333333333333333;exitDx=0;exitDy=0;exitPerimeter=0;entryX=0;entryY=0.5;entryDx=0;entryDy=0;" parent="1" source="R9cN1EyK2M06EUhOzFU1-135" target="R9cN1EyK2M06EUhOzFU1-139" edge="1">
                    <mxGeometry width="50" height="50" relative="1" as="geometry">
                        <mxPoint x="320" y="2400" as="sourcePoint"/>
                        <mxPoint x="370" y="2350" as="targetPoint"/>
                    </mxGeometry>
                </mxCell>
                <mxCell id="R9cN1EyK2M06EUhOzFU1-141" value="" style="endArrow=none;html=1;rounded=0;exitX=1;exitY=0.5;exitDx=0;exitDy=0;entryX=0;entryY=0.5;entryDx=0;entryDy=0;endFill=0;dashed=1;dashPattern=12 12;startArrow=open;startFill=0;" parent="1" source="R9cN1EyK2M06EUhOzFU1-44" target="R9cN1EyK2M06EUhOzFU1-48" edge="1">
                    <mxGeometry width="50" height="50" relative="1" as="geometry">
                        <mxPoint x="510" y="1100" as="sourcePoint"/>
                        <mxPoint x="560" y="1050" as="targetPoint"/>
                    </mxGeometry>
                </mxCell>
                <mxCell id="R9cN1EyK2M06EUhOzFU1-142" value="Manage Ticket" style="ellipse;whiteSpace=wrap;html=1;" parent="1" vertex="1">
                    <mxGeometry x="357" y="1110" width="120" height="80" as="geometry"/>
                </mxCell>
                <mxCell id="R9cN1EyK2M06EUhOzFU1-143" value="" style="endArrow=open;html=1;rounded=0;exitX=0.5;exitY=1;exitDx=0;exitDy=0;entryX=0.5;entryY=0;entryDx=0;entryDy=0;endFill=0;dashed=1;dashPattern=12 12;" parent="1" source="R9cN1EyK2M06EUhOzFU1-44" target="R9cN1EyK2M06EUhOzFU1-142" edge="1">
                    <mxGeometry width="50" height="50" relative="1" as="geometry">
                        <mxPoint x="560" y="1200" as="sourcePoint"/>
                        <mxPoint x="610" y="1150" as="targetPoint"/>
                    </mxGeometry>
                </mxCell>
                <mxCell id="R9cN1EyK2M06EUhOzFU1-144" value="&amp;lt;&amp;lt;Includes&amp;gt;&amp;gt;" style="edgeLabel;html=1;align=center;verticalAlign=middle;resizable=0;points=[];" parent="1" vertex="1" connectable="0">
                    <mxGeometry x="415.0025272333867" y="1043.0010371529434" as="geometry">
                        <mxPoint x="1" y="2" as="offset"/>
                    </mxGeometry>
                </mxCell>
                <mxCell id="2" value="Check dashboard" style="ellipse;whiteSpace=wrap;html=1;" parent="1" vertex="1">
                    <mxGeometry x="310" y="1540" width="120" height="80" as="geometry"/>
                </mxCell>
                <mxCell id="3" value="" style="endArrow=none;html=1;rounded=0;exitX=1;exitY=0.3333333333333333;exitDx=0;exitDy=0;exitPerimeter=0;entryX=0;entryY=0.5;entryDx=0;entryDy=0;endFill=0;" parent="1" source="R9cN1EyK2M06EUhOzFU1-66" target="2" edge="1">
                    <mxGeometry width="50" height="50" relative="1" as="geometry">
                        <mxPoint x="160" y="1583.3366666666666" as="sourcePoint"/>
                        <mxPoint x="433" y="1396.67" as="targetPoint"/>
                    </mxGeometry>
                </mxCell>
                <mxCell id="4" value="Schedule Trainings" style="ellipse;whiteSpace=wrap;html=1;" parent="1" vertex="1">
                    <mxGeometry x="310" y="1840" width="120" height="80" as="geometry"/>
                </mxCell>
            </root>
        </mxGraphModel>
    </diagram>
</mxfile>